# xmcd
#
# Track frame offsets: 
#        150
#        15255
#        33912
#        53476
#        73547
#        93730
#        116424
#        133789
#        147522
#        167697
#        182786
#        197435
#
# Disc length: 2838 seconds
#
# Revision: 0
# Processed by: cddbd v1.5.2PL0 Copyright (c) Steve Scherf et al.
# Submitted via: ExactAudioCopyFreeDBPlugin 1.0
#
DISCID=9d0b140c
DTITLE=Rudy Rotta - The Beatles in Blues (remastered)
DYEAR=2013
DGENRE=Blues
TTITLE0=Love me do
TTITLE1=I feel fine
TTITLE2=Come together
TTITLE3=Dear Prudence
TTITLE4=Revolution
TTITLE5=Get back
TTITLE6=Norwegian Wood
TTITLE7=I've got a feeling
TTITLE8=Don't let me down
TTITLE9=You can't do that
TTITLE10=She's a woman
TTITLE11=In my life
EXTD=
EXTT0=
EXTT1=
EXTT2=
EXTT3=
EXTT4=
EXTT5=
EXTT6=
EXTT7=
EXTT8=
EXTT9=
EXTT10=
EXTT11=
PLAYORDER=
